<svg version="1.1" id="Layer_1" xmlns="http://www.w3.org/2000/svg" xmlns:xlink="http://www.w3.org/1999/xlink" x="0px" y="0px"
	 width="100%" viewBox="0 0 512 512" enable-background="new 0 0 512 512" xml:space="preserve">
<path fill="#000000" opacity="1.000000" stroke="none" 
	d="
M312.000000,513.000000 
	C208.025253,513.000000 104.550499,513.000000 1.037875,513.000000 
	C1.037875,342.400238 1.037875,171.800446 1.037875,1.100329 
	C171.558090,1.100329 342.116272,1.100329 512.837219,1.100329 
	C512.837219,171.666534 512.837219,342.333252 512.837219,513.000000 
	C446.133759,513.000000 379.316864,513.000000 312.000000,513.000000 
M276.028259,483.003418 
	C288.437744,481.114441 301.021210,479.979248 313.216827,477.163940 
	C332.617798,472.685211 350.975708,465.194489 368.355988,455.313965 
	C386.416473,445.046783 402.885071,432.780090 417.883545,417.522278 
	C426.313385,407.510986 435.192078,397.838562 443.065979,387.407623 
	C454.383301,372.415009 462.659729,355.607513 469.356873,338.108459 
	C478.148071,315.137878 483.210938,291.295166 483.898499,266.682983 
	C484.180023,256.605927 483.759888,246.460220 482.882202,236.413605 
	C482.004547,226.367355 480.909302,216.227997 478.596161,206.439804 
	C470.929382,173.997528 457.229523,144.412415 436.661743,117.879738 
	C424.945831,102.766029 411.776001,89.239845 396.873718,77.570229 
	C380.607330,64.832375 362.649170,54.651058 343.437592,46.763756 
	C320.540558,37.363388 296.701294,31.712372 272.115997,30.212189 
	C254.850922,29.158680 237.521591,29.842699 220.271576,32.836075 
	C199.193832,36.493671 179.025772,42.557674 159.710480,51.681141 
	C140.624603,60.696220 123.203896,72.090302 107.273811,86.024612 
	C92.598022,98.861771 79.923454,113.287766 68.919960,129.301315 
	C58.942322,143.821976 51.017124,159.417709 44.673862,175.803314 
	C36.342556,197.324341 31.319130,219.706329 30.171329,242.701645 
	C29.218895,261.782898 30.012800,280.855042 33.848392,299.788147 
	C37.604229,318.327576 43.075176,336.213043 51.094215,353.281586 
	C62.366787,377.275360 76.943153,399.021454 96.494736,417.965698 
	C106.529587,426.386047 116.140274,435.386383 126.690407,443.102142 
	C146.680145,457.721497 168.928909,468.077301 192.708496,474.974396 
	C207.436523,479.246124 222.308853,482.988556 238.314774,483.737030 
	C250.064407,483.818176 261.813995,483.911621 273.563751,483.939697 
	C274.085236,483.940948 274.608185,483.346710 276.028259,483.003418 
z"/>
<path fill="#FEB103" opacity="1.000000" stroke="none" 
	d="
M96.156754,417.475983 
	C76.943153,399.021454 62.366787,377.275360 51.094215,353.281586 
	C43.075176,336.213043 37.604229,318.327576 33.848392,299.788147 
	C30.012800,280.855042 29.218895,261.782898 30.171329,242.701645 
	C31.319130,219.706329 36.342556,197.324341 44.673862,175.803314 
	C51.017124,159.417709 58.942322,143.821976 68.919960,129.301315 
	C79.923454,113.287766 92.598022,98.861771 107.273811,86.024612 
	C123.203896,72.090302 140.624603,60.696220 159.710480,51.681141 
	C179.025772,42.557674 199.193832,36.493671 220.271576,32.836075 
	C237.521591,29.842699 254.850922,29.158680 272.115997,30.212189 
	C296.701294,31.712372 320.540558,37.363388 343.437592,46.763756 
	C362.649170,54.651058 380.607330,64.832375 396.873718,77.570229 
	C411.776001,89.239845 424.945831,102.766029 436.661743,117.879738 
	C457.229523,144.412415 470.929382,173.997528 478.596161,206.439804 
	C480.909302,216.227997 482.004547,226.367355 482.882202,236.413605 
	C483.759888,246.460220 484.180023,256.605927 483.898499,266.682983 
	C483.210938,291.295166 478.148071,315.137878 469.356873,338.108459 
	C462.659729,355.607513 454.383301,372.415009 443.065979,387.407623 
	C435.192078,397.838562 426.313385,407.510986 417.546082,417.315308 
	C397.794800,352.163849 355.089203,312.025787 288.984039,296.965912 
	C281.433472,295.245758 273.678955,294.420593 266.439240,293.119507 
	C269.979126,292.569427 273.143799,292.274292 276.211639,291.561981 
	C321.079926,281.144562 349.466217,237.368225 340.898010,191.885651 
	C332.505524,147.336105 289.772949,117.168274 244.464005,123.806328 
	C206.656906,129.345306 176.775375,159.796356 172.168839,197.479370 
	C167.477753,235.854156 188.685303,272.601654 224.253998,287.027649 
	C231.551254,289.987305 239.388916,291.614502 246.550110,293.929352 
	C243.641800,294.279755 241.153580,294.503571 238.680939,294.841583 
	C176.089294,303.397583 131.531296,336.456207 104.960411,393.664124 
	C101.407295,401.314087 99.061592,409.524902 96.156754,417.475983 
z"/>
<path fill="#979797" opacity="1.000000" stroke="none" 
	d="
M266.019012,293.180450 
	C273.678955,294.420593 281.433472,295.245758 288.984039,296.965912 
	C355.089203,312.025787 397.794800,352.163849 417.291260,417.493225 
	C402.885071,432.780090 386.416473,445.046783 368.355988,455.313965 
	C350.975708,465.194489 332.617798,472.685211 313.216827,477.163940 
	C301.021210,479.979248 288.437744,481.114441 275.102844,482.983185 
	C262.057892,482.973053 249.938354,482.983124 237.818832,482.993225 
	C222.308853,482.988556 207.436523,479.246124 192.708496,474.974396 
	C168.928909,468.077301 146.680145,457.721497 126.690407,443.102142 
	C116.140274,435.386383 106.529587,426.386047 96.325745,417.720825 
	C99.061592,409.524902 101.407295,401.314087 104.960411,393.664124 
	C131.531296,336.456207 176.089294,303.397583 238.680939,294.841583 
	C241.153580,294.503571 243.641800,294.279755 247.016312,293.977783 
	C253.946243,293.695343 259.982635,293.437897 266.019012,293.180450 
z"/>
<path fill="#BAA066" opacity="1.000000" stroke="none" 
	d="
M238.066803,483.365112 
	C249.938354,482.983124 262.057892,482.973053 274.653931,482.996399 
	C274.608185,483.346710 274.085236,483.940948 273.563751,483.939697 
	C261.813995,483.911621 250.064407,483.818176 238.066803,483.365112 
z"/>
<path fill="#FDE2C4" opacity="1.000000" stroke="none" 
	d="
M266.439240,293.119507 
	C259.982635,293.437897 253.946243,293.695343 247.443665,293.904358 
	C239.388916,291.614502 231.551254,289.987305 224.253998,287.027649 
	C188.685303,272.601654 167.477753,235.854156 172.168839,197.479370 
	C176.775375,159.796356 206.656906,129.345306 244.464005,123.806328 
	C289.772949,117.168274 332.505524,147.336105 340.898010,191.885651 
	C349.466217,237.368225 321.079926,281.144562 276.211639,291.561981 
	C273.143799,292.274292 269.979126,292.569427 266.439240,293.119507 
z"/>
</svg>